<?xml version="1.0" encoding="iso-8859-1"?>
<!-- Generator: Adobe Illustrator 19.0.0, SVG Export Plug-In . SVG Version: 6.00 Build 0)  -->
<svg version="1.1" id="Layer_1" xmlns="http://www.w3.org/2000/svg" xmlns:xlink="http://www.w3.org/1999/xlink" x="0px" y="0px"
	 viewBox="0 0 512 512" style="enable-background:new 0 0 512 512;" xml:space="preserve">
<circle style="fill:#71E2EF;" cx="256" cy="256" r="256"/>
<path style="fill:#38C6D9;" d="M509.931,288.696L345.069,123.833l-78.15,77.002l7.521,310.498
	C396.336,502.656,494.639,408.647,509.931,288.696z"/>
<rect x="213.333" y="292.219" style="fill:#FCD088;" width="85.333" height="85.333"/>
<rect x="255.431" y="292.219" style="fill:#DBAF71;" width="43.236" height="85.333"/>
<path style="fill:#F9F5E8;" d="M199.111,351.01l-45.496,9.099c-23.164,4.634-39.838,24.972-39.838,48.595v60.175
	C154.457,496.109,203.371,512,256,512s101.543-15.891,142.222-43.122v-60.175c0-23.623-16.674-43.961-39.838-48.593l-45.496-9.099
	l-8.04-11.736c-1.505-2.196-4.353-3.024-6.801-1.977l-42.334,18.115l-41.508-18.098c-2.431-1.06-5.27-0.264-6.796,1.905
	L199.111,351.01z"/>
<path style="fill:#E2DED5;" d="M358.384,360.108l-45.496-9.099l-8.04-11.736c-1.505-2.196-4.353-3.024-6.801-1.977l-42.334,18.115
	l-0.288-0.126v156.703c0.191,0,0.381,0.01,0.574,0.01c52.629,0,101.543-15.891,142.222-43.122v-60.173
	C398.222,385.081,381.549,364.742,358.384,360.108z"/>
<path style="fill:#FFEDB5;" d="M349.953,192.669c0,54.982-42.063,128-93.953,128s-93.953-73.016-93.953-128
	S204.11,93.113,256,93.113S349.953,137.687,349.953,192.669z"/>
<path style="fill:#E2CA88;" d="M256,93.113c-0.193,0-0.381,0.014-0.574,0.016v227.528c0.191,0.002,0.383,0.012,0.574,0.012
	c51.89,0,93.953-73.018,93.953-128S307.89,93.113,256,93.113z"/>
<path style="fill:#634200;" d="M266.343,85.356c-106.594-1.724-142.796,93.953-113.778,149.98c0,0,2.091-1.815,5.379-4.986
	c4.344,11.335,10.973,22.214,20.911,25.65c0,0-9.188-21.395-5.284-42.344c14.693-17.411,30.818-42.372,25.54-63.653
	c0,0,43.506,51.61,140.959,56.772c7.845,22.854-3.477,49.226-3.477,49.226c17.365-6.003,24.65-34.714,27.231-48.907
	c1.967-0.05,3.949-0.114,5.954-0.202C369.778,206.891,372.938,87.08,266.343,85.356z"/>
<path style="fill:#4C3102;" d="M266.343,85.356c-3.729-0.06-7.361,0.01-10.917,0.183v102.203
	c21.576,9.307,49.604,17.175,84.644,19.032c7.845,22.854-3.477,49.226-3.477,49.226c17.365-6.003,24.65-34.714,27.231-48.907
	c1.967-0.05,3.949-0.114,5.954-0.202C369.778,206.891,372.938,87.08,266.343,85.356z"/>
<g>
	<path style="fill:#442F15;" d="M199.094,351.013l-45.477,9.095c-23.166,4.634-39.839,24.972-39.839,48.595v60.175
		c32.022,21.437,69.158,35.802,109.18,40.963L199.094,351.013z"/>
	<path style="fill:#442F15;" d="M358.384,360.108l-45.477-9.095l-23.864,158.829c40.022-5.161,77.159-19.528,109.18-40.963v-60.175
		C398.222,385.081,381.549,364.742,358.384,360.108z"/>
</g>
<g>
	<path style="fill:#940030;" d="M251.657,365.901l-29.736-11.893c-3.908-1.564-8.159,1.315-8.159,5.523v32.385
		c0,4.21,4.251,7.087,8.159,5.523l29.736-11.893c2.258-0.903,3.739-3.091,3.739-5.523v-8.597
		C255.398,368.992,253.918,366.804,251.657,365.901z"/>
	<path style="fill:#940030;" d="M260.342,365.901l29.736-11.893c3.908-1.564,8.159,1.315,8.159,5.523v32.385
		c0,4.21-4.251,7.087-8.159,5.523l-29.736-11.893c-2.258-0.903-3.739-3.091-3.739-5.523v-8.597
		C256.602,368.992,258.082,366.804,260.342,365.901z"/>
</g>
<g>
	<path style="fill:#FF0F27;" d="M251.046,388.394h9.909c4.262,0,7.716-3.455,7.716-7.716v-9.909c0-4.262-3.455-7.716-7.716-7.716
		h-9.909c-4.261,0-7.716,3.455-7.716,7.716v9.909C243.329,384.94,246.784,388.394,251.046,388.394z"/>
	<path style="fill:#FF0F27;" d="M251.046,363.053c-4.261,0-7.716,3.455-7.716,7.716v9.909c0,4.262,3.455,7.716,7.716,7.716h4.38
		v-25.341H251.046z"/>
</g>
<path style="fill:#E2102E;" d="M260.954,363.053h-5.529v25.341h5.529c4.261,0,7.716-3.455,7.716-7.716v-9.909
	C268.671,366.508,265.216,363.053,260.954,363.053z"/>
<g>
	<circle style="fill:#C1C1C1;" cx="256" cy="404.687" r="5.172"/>
	<circle style="fill:#C1C1C1;" cx="256" cy="430.839" r="5.172"/>
	<circle style="fill:#C1C1C1;" cx="256" cy="456.973" r="5.172"/>
	<circle style="fill:#C1C1C1;" cx="256" cy="483.125" r="5.172"/>
</g>
<g>
</g>
<g>
</g>
<g>
</g>
<g>
</g>
<g>
</g>
<g>
</g>
<g>
</g>
<g>
</g>
<g>
</g>
<g>
</g>
<g>
</g>
<g>
</g>
<g>
</g>
<g>
</g>
<g>
</g>
</svg>
